<svg version="1.1" preserveAspectRatio="none" xmlns="http://www.w3.org/2000/svg" width="500" height="500" viewBox="0 0 500 500"><rect width="100%" height="100%" fill="#000000" fill-opacity="1"/><svg viewBox="38.4471 119.8081 378.3754 361.6402" width="333" height="318.2717126959099" x="83.5px" y="90.8641px" xmlns="http://www.w3.org/2000/svg" xmlns:xlink="http://www.w3.org/1999/xlink" preserveAspectRatio="none"><defs></defs><style>.aa2O-D20rgJ0filter-floo {flood-color:#F539BD;flood-opacity:1;}.aHsFB6mEE6colors-1 {fill:#F539B3;fill-opacity:1;}.aHsFB6mEE6colors-2 {fill:#F539BD;fill-opacity:1;}.ai0NrGVRvc0filter-floo {flood-color:#F3F3F3;flood-opacity:0.91;}.aRWrrEA-PR0filter-floo {flood-color:#E9B0D6;flood-opacity:0.5;}.atUk6sjh6M0filter-floo {flood-color:#FFC7C7;flood-opacity:0.89;}.companyName {fill:#FBE1EF;fill-opacity:1;}.icon2 {fill:#F539B3;fill-opacity:1;}.icon3 {fill:#F539BD;fill-opacity:1;}.icon3-str {stroke:#F539BD;stroke-opacity:1;}.shape-floo {flood-color:#2525CE;flood-opacity:1;}</style><defs>
      <filter
        x="38.4471"
        y="259.4483"
        width="378.3754"
        height="222"
        id="ikYEXSHZT"
        filterUnits="userSpaceOnUse"
        primitiveUnits="userSpaceOnUse"
        color-interpolation-filters="sRGB">
        
    <feGaussianBlur in="SourceGraphic" stdDeviation="7"/>
    <feOffset dx="2.4630255792620215" dy="2.4630255792620215" result="XO-MkLhPDDA"/>
    <feFlood flood-color="#2525CE" flood-opacity="1" in="XO-MkLhPDDA" />
    <feComposite  in2="XO-MkLhPDDA" operator="in" result="Yj0tVedMv8v"/><feMerge result="a9ys2dgNbLkZ"><feMergeNode in="Yj0tVedMv8v" /><feMergeNode in="SourceGraphic" /></feMerge><feGaussianBlur  result="a6XV3rcY5TAd" stdDeviation="10" />
      </filter>
      <filter
        x="74.9767"
        y="295.9853"
        width="300.3901"
        height="144"
        id="tUk6sjh6M"
        filterUnits="userSpaceOnUse"
        primitiveUnits="userSpaceOnUse"
        color-interpolation-filters="sRGB">
        
    <feGaussianBlur in="SourceGraphic" stdDeviation="4"/>
    <feOffset dx="0" dy="0" result="WO4Sh2-9mZy"/>
    <feFlood flood-color="#FFC7C7" flood-opacity="0.89" in="WO4Sh2-9mZy" />
    <feComposite  in2="WO4Sh2-9mZy" operator="in" result="tZ1WOlr8NGF"/><feMerge result="p3AFZ4EqFO5"><feMergeNode in="tZ1WOlr8NGF" /><feMergeNode in="SourceGraphic" /></feMerge>
      </filter>
      <filter
        x="111.3755"
        y="119.8081"
        width="233.2382"
        height="222"
        id="a2O-D20rgJ"
        filterUnits="userSpaceOnUse"
        primitiveUnits="userSpaceOnUse"
        color-interpolation-filters="sRGB">
        
    <feGaussianBlur in="SourceGraphic" stdDeviation="7"/>
    <feOffset dx="2.8228399746132595" dy="2.8228399746132595" result="Jlrfp0Na-NA"/>
    <feFlood flood-color="#F539BD" flood-opacity="1" in="Jlrfp0Na-NA" />
    <feComposite  in2="Jlrfp0Na-NA" operator="in" result="BGJLmro4dHq"/><feMerge result="cXlZrPNxMI0"><feMergeNode in="BGJLmro4dHq" /><feMergeNode in="SourceGraphic" /></feMerge><feGaussianBlur  result="Kz538w6GX86" stdDeviation="10" />
      </filter>
      <filter
        x="147.5527"
        y="155.9853"
        width="155.2382"
        height="144"
        id="i0NrGVRvc"
        filterUnits="userSpaceOnUse"
        primitiveUnits="userSpaceOnUse"
        color-interpolation-filters="sRGB">
        
    <feGaussianBlur in="SourceGraphic" stdDeviation="4"/>
    <feOffset dx="0" dy="0" result="oQGTdXgU-jA"/>
    <feFlood flood-color="#F3F3F3" flood-opacity="0.91" in="oQGTdXgU-jA" />
    <feComposite  in2="oQGTdXgU-jA" operator="in" result="FoiI8TM8MyR"/><feMerge result="ol6j2SIYvPr"><feMergeNode in="FoiI8TM8MyR" /><feMergeNode in="SourceGraphic" /></feMerge>
      </filter></defs><g filter="url(#ikYEXSHZT)"><g opacity="1" transform="rotate(0 86.9841 307.9853)">
<svg width="276.3754" height="120" x="86.9841" y="307.9853" version="1.1" preserveAspectRatio="none" viewBox="1.1719 -28.7305 110.7031 48.0664">
  <g transform="matrix(1 0 0 1 0 0)" class="icon3"><path id="id-BEGfasMba7" d="M18.28-28.73L18.28-28.73Q20.68-28.73 23.18-28.29Q25.68-27.85 28.05-26.95Q30.41-26.05 32.50-24.70Q34.59-23.34 36.15-21.52Q37.71-19.71 38.62-17.42Q39.53-15.14 39.53-12.36L39.53-12.36Q39.53-9.59 38.55-7.23Q37.58-4.86 35.82-3.14Q34.06-1.43 31.62-0.45Q29.18 0.53 26.25 0.53L26.25 0.53Q24.86 0.53 23.38 0.32Q21.89 0.12 20.41-0.31Q18.93-0.74 17.49-1.38Q16.05-2.01 14.75-2.89L14.75-2.89Q13.20-1.37 11.18-0.52Q9.16 0.33 6.91 0.33L6.91 0.33Q5.70 0.33 4.65 0.06Q3.59-0.21 2.82-0.72Q2.05-1.23 1.61-1.95Q1.17-2.68 1.17-3.55L1.17-3.55Q1.17-4.32 1.55-4.98Q1.93-5.64 2.63-6.15Q3.32-6.66 4.29-6.95Q5.25-7.25 6.41-7.25L6.41-7.25Q9.80-7.25 14.45-4.75L14.45-4.75Q15.31-5.82 15.86-7.17L15.86-7.17Q16.46-8.67 16.81-10.26Q17.15-11.86 17.41-13.44Q17.68-15.02 17.96-16.52Q18.24-18.03 18.74-19.36Q19.24-20.68 20.05-21.79Q20.86-22.89 22.17-23.67L22.17-23.67Q22.36-23.77 22.52-23.77L22.52-23.77Q22.79-23.77 23.04-23.57Q23.28-23.38 23.28-23.03L23.28-23.03Q23.28-22.62 22.91-22.40L22.91-22.40Q21.88-21.80 21.22-20.89Q20.57-19.98 20.14-18.85Q19.71-17.71 19.45-16.41Q19.20-15.10 18.96-13.67L18.96-13.67Q18.77-12.50 18.54-11.22Q18.30-9.94 17.95-8.68Q17.60-7.42 17.06-6.22Q16.52-5.02 15.74-4.00L15.74-4.00Q15.78-3.98 15.79-3.97Q15.80-3.96 15.84-3.95L15.84-3.95Q18.32-2.46 21.00-1.70Q23.67-0.94 26.23-0.94L26.23-0.94Q29.00-0.94 31.20-1.86Q33.40-2.77 34.92-4.33Q36.45-5.88 37.25-7.95Q38.05-10.02 38.05-12.32L38.05-12.32Q38.05-14.67 37.27-16.69Q36.48-18.71 35.13-20.37Q33.77-22.03 31.90-23.32Q30.04-24.61 27.88-25.48Q25.72-26.35 23.35-26.81Q20.98-27.27 18.59-27.27L18.59-27.27Q15.39-27.27 12.74-26.73Q10.10-26.19 8.19-25.16Q6.29-24.12 5.23-22.62Q4.18-21.11 4.18-19.20L4.18-19.20Q4.18-18.11 4.50-17.27Q4.82-16.43 5.32-15.81Q5.82-15.20 6.41-14.77Q6.99-14.34 7.50-14.07Q8.01-13.81 8.37-13.69Q8.73-13.57 8.79-13.55L8.79-13.55Q9.04-13.50 9.19-13.29Q9.34-13.09 9.34-12.83L9.34-12.83Q9.34-12.50 9.10-12.32Q8.87-12.15 8.59-12.15L8.59-12.15Q8.20-12.15 7.62-12.33Q7.03-12.52 6.38-12.90Q5.72-13.28 5.07-13.86Q4.41-14.43 3.89-15.21Q3.36-16.00 3.04-16.99Q2.71-17.99 2.71-19.20L2.71-19.20Q2.71-21.41 3.84-23.17Q4.96-24.94 7.01-26.17Q9.06-27.40 11.92-28.07Q14.79-28.73 18.28-28.73ZM13.40-3.63L13.40-3.63Q11.37-4.71 9.63-5.25Q7.89-5.80 6.45-5.80L6.45-5.80Q5.63-5.80 4.93-5.62Q4.24-5.43 3.73-5.12Q3.22-4.80 2.93-4.39Q2.64-3.98 2.64-3.54L2.64-3.54Q2.64-3.11 2.90-2.68Q3.16-2.25 3.70-1.91Q4.24-1.58 5.04-1.37Q5.84-1.15 6.91-1.15L6.91-1.15Q8.75-1.15 10.42-1.81Q12.09-2.46 13.40-3.63Z M43.98-2.15L43.98-2.15Q44.39-1.58 45.04-1.24Q45.68-0.90 46.62-0.90L46.62-0.90Q47.58-0.90 48.36-1.36Q49.14-1.82 49.79-2.56Q50.43-3.30 50.94-4.22Q51.45-5.14 51.86-6.05L51.86-6.05Q51.95-6.27 52.13-6.38Q52.30-6.48 52.52-6.48L52.52-6.48Q52.85-6.48 53.06-6.25Q53.26-6.02 53.26-5.74L53.26-5.74Q53.26-5.64 53.24-5.58Q53.22-5.51 53.18-5.43L53.18-5.43Q51.84-2.46 50.24-0.96Q48.65 0.55 46.64 0.59L46.64 0.59Q45.35 0.59 44.41 0.09Q43.48-0.41 42.87-1.20Q42.27-1.99 41.97-2.99Q41.68-3.98 41.68-4.98L41.68-4.98Q41.68-5.98 41.92-6.82Q42.17-7.66 42.63-8.28Q43.09-8.91 43.72-9.26Q44.36-9.61 45.12-9.61L45.12-9.61Q45.57-9.61 46.01-9.42Q46.45-9.24 46.80-8.90Q47.15-8.55 47.36-8.07Q47.58-7.58 47.58-6.95L47.58-6.95Q47.58-6.15 47.30-5.45Q47.03-4.75 46.55-4.14Q46.07-3.54 45.41-3.03Q44.75-2.52 43.98-2.15ZM43.40-3.42L43.40-3.42Q44.00-3.67 44.50-4.06Q45-4.45 45.35-4.92Q45.70-5.39 45.90-5.91Q46.09-6.43 46.09-6.95L46.09-6.95Q46.09-7.54 45.80-7.84Q45.51-8.14 45.12-8.14L45.12-8.14Q44.59-8.14 44.22-7.85Q43.85-7.56 43.61-7.09Q43.38-6.62 43.27-6.04Q43.16-5.47 43.16-4.90L43.16-4.90Q43.16-4.55 43.23-4.16Q43.30-3.77 43.40-3.42Z M55.21-15.33L55.21-15.33Q55.21-14.59 54.70-14.07Q54.18-13.55 53.44-13.55L53.44-13.55Q52.70-13.55 52.18-14.07Q51.66-14.59 51.66-15.33L51.66-15.33Q51.66-15.70 51.80-16.03Q51.93-16.35 52.18-16.59Q52.42-16.84 52.74-16.97Q53.07-17.11 53.44-17.11L53.44-17.11Q53.81-17.11 54.13-16.97Q54.45-16.84 54.70-16.59Q54.94-16.35 55.08-16.03Q55.21-15.70 55.21-15.33ZM53.34 0.68L53.34 0.68Q54.06-0.10 54.82-0.97Q55.59-1.84 56.29-2.71Q56.99-3.57 57.58-4.42Q58.16-5.27 58.50-6.04L58.50-6.04Q58.67-6.46 59.16-6.46L59.16-6.46Q59.49-6.46 59.70-6.24Q59.90-6.02 59.90-5.74L59.90-5.74Q59.90-5.59 59.84-5.45L59.84-5.45Q59.39-4.43 58.61-3.34Q57.83-2.25 56.92-1.16Q56.02-0.08 55.07 0.95Q54.12 1.97 53.34 2.85L53.34 2.85Q53.36 4.41 53.39 5.92Q53.42 7.42 53.42 8.77L53.42 8.77Q53.42 14.14 52.36 16.74Q51.31 19.34 49.22 19.34L49.22 19.34Q48.50 19.34 47.89 19.02Q47.29 18.71 46.86 18.13Q46.43 17.54 46.18 16.68Q45.94 15.82 45.94 14.73L45.94 14.73Q45.94 13.52 46.26 12.08Q46.58 10.64 47.29 9.04Q48.01 7.44 49.14 5.73Q50.27 4.02 51.88 2.27L51.88 2.27Q51.88 0.59 51.89-1.08Q51.91-2.75 51.96-4.29Q52.01-5.82 52.10-7.16Q52.19-8.50 52.30-9.53L52.30-9.53Q52.34-9.82 52.55-10Q52.75-10.18 53.05-10.18L53.05-10.18Q53.34-10.18 53.55-9.96Q53.77-9.75 53.77-9.43L53.77-9.43Q53.77-9.32 53.70-8.67Q53.63-8.03 53.55-6.78Q53.48-5.53 53.41-3.68Q53.34-1.84 53.34 0.68ZM54.10-15.33L54.10-15.33Q54.10-15.61 53.91-15.81Q53.71-16.02 53.44-16.02L53.44-16.02Q53.16-16.02 52.96-15.81Q52.75-15.61 52.75-15.33L52.75-15.33Q52.75-15.06 52.96-14.86Q53.16-14.67 53.44-14.67L53.44-14.67Q53.71-14.67 53.91-14.86Q54.10-15.06 54.10-15.33ZM51.95 8.65L51.95 8.65Q51.95 7.66 51.93 6.66Q51.91 5.66 51.89 4.49L51.89 4.49Q50.68 5.96 49.83 7.38Q48.98 8.81 48.44 10.12Q47.89 11.43 47.65 12.60Q47.40 13.77 47.40 14.73L47.40 14.73Q47.40 15.27 47.48 15.83Q47.56 16.39 47.76 16.85Q47.97 17.30 48.32 17.59Q48.67 17.87 49.22 17.87L49.22 17.87Q49.43 17.87 49.73 17.77Q50.02 17.68 50.32 17.35Q50.63 17.03 50.92 16.43Q51.21 15.82 51.45 14.79Q51.68 13.77 51.82 12.27Q51.95 10.76 51.95 8.65Z M73.59-5.45L73.59-5.45Q73.52-5.29 73.27-4.79Q73.03-4.30 72.65-3.65Q72.27-3.01 71.76-2.30Q71.25-1.60 70.63-1.02Q70-0.43 69.28-0.05Q68.55 0.33 67.75 0.33L67.75 0.33Q66.62 0.33 65.85-0.39Q65.08-1.11 64.73-2.21L64.73-2.21Q64.06-1.09 63.14-0.44Q62.23 0.21 61.31 0.21L61.31 0.21Q60.59 0.21 60-0.05Q59.41-0.31 59.00-0.79Q58.59-1.27 58.37-1.91Q58.14-2.56 58.14-3.32L58.14-3.32Q58.14-4.84 58.66-6.01Q59.18-7.17 59.98-7.95Q60.78-8.73 61.75-9.12Q62.71-9.51 63.61-9.51L63.61-9.51Q64.22-9.51 64.73-9.35Q65.23-9.18 65.60-8.98Q65.96-8.79 66.15-8.62Q66.35-8.46 66.37-8.44L66.37-8.44Q66.58-8.18 66.58-7.91L66.58-7.91Q66.58-7.62 66.37-7.39Q66.15-7.17 65.86-7.17L65.86-7.17Q65.55-7.17 65.33-7.38L65.33-7.38Q65.29-7.42 65.16-7.53Q65.02-7.64 64.79-7.75Q64.55-7.87 64.23-7.96Q63.91-8.05 63.50-8.05L63.50-8.05Q62.89-8.05 62.21-7.77Q61.52-7.50 60.96-6.92Q60.39-6.35 60.01-5.48Q59.63-4.61 59.63-3.42L59.63-3.42Q59.63-3.05 59.71-2.67Q59.79-2.29 59.98-1.97Q60.18-1.66 60.51-1.46Q60.84-1.27 61.33-1.27L61.33-1.27Q61.68-1.27 62.14-1.50Q62.60-1.74 63.02-2.23Q63.44-2.71 63.78-3.46Q64.12-4.20 64.26-5.21L64.26-5.21Q64.30-5.49 64.51-5.67Q64.73-5.86 65.02-5.86L65.02-5.86Q65.29-5.86 65.50-5.64Q65.70-5.43 65.72-5.16L65.72-5.16Q65.74-4.79 65.80-4.11Q65.86-3.44 66.06-2.77Q66.27-2.11 66.68-1.62Q67.09-1.13 67.81-1.13L67.81-1.13Q68.28-1.13 68.74-1.39Q69.20-1.64 69.64-2.06Q70.08-2.48 70.48-3.02Q70.88-3.55 71.21-4.10Q71.54-4.65 71.80-5.16Q72.05-5.66 72.23-6.04L72.23-6.04Q72.32-6.25 72.51-6.37Q72.70-6.48 72.91-6.48L72.91-6.48Q73.24-6.48 73.45-6.24Q73.65-6.00 73.65-5.72L73.65-5.72Q73.65-5.59 73.59-5.45Z M76.58-1.76L76.58-1.76Q76.89-2.40 77.30-3.17Q77.71-3.95 78.18-4.74Q78.65-5.53 79.17-6.31Q79.69-7.09 80.25-7.79L80.25-7.79Q80.82-8.48 81.40-8.78Q81.97-9.08 82.48-9.08L82.48-9.08Q83.50-9.08 83.98-8.34Q84.47-7.60 84.47-6.50L84.47-6.50Q84.47-6.25 84.44-5.89Q84.41-5.53 84.38-5.12Q84.36-4.71 84.33-4.29Q84.30-3.87 84.30-3.50L84.30-3.50Q84.30-3.03 84.35-2.60Q84.39-2.17 84.53-1.85Q84.67-1.52 84.92-1.34Q85.18-1.15 85.59-1.15L85.59-1.15Q86.33-1.15 87.03-1.73Q87.73-2.30 88.33-3.10Q88.93-3.89 89.37-4.71Q89.80-5.53 90.02-6.04L90.02-6.04Q90.12-6.25 90.30-6.37Q90.49-6.48 90.70-6.48L90.70-6.48Q91.04-6.48 91.24-6.24Q91.45-6.00 91.45-5.72L91.45-5.72Q91.45-5.59 91.39-5.45L91.39-5.45Q91.31-5.29 91.07-4.80Q90.84-4.32 90.46-3.68Q90.08-3.05 89.57-2.33Q89.06-1.62 88.45-1.04Q87.83-0.45 87.12-0.06Q86.41 0.33 85.63 0.33L85.63 0.33Q84.75 0.33 84.20-0.01Q83.65-0.35 83.34-0.91Q83.03-1.46 82.92-2.14Q82.81-2.81 82.81-3.50L82.81-3.50Q82.81-3.79 82.84-4.16Q82.87-4.53 82.92-4.94Q82.97-5.35 83.00-5.76Q83.03-6.17 83.03-6.54L83.03-6.54Q83.03-7.17 82.83-7.39Q82.64-7.62 82.48-7.62L82.48-7.62Q82.17-7.62 81.77-7.26Q81.37-6.89 80.93-6.31Q80.49-5.72 80.03-4.99Q79.57-4.26 79.17-3.54Q78.77-2.81 78.43-2.16Q78.09-1.50 77.89-1.07L77.89-1.07Q77.50-0.25 77.11 0.03Q76.72 0.31 76.31 0.31L76.31 0.31Q75.74 0.31 75.40-0.03Q75.06-0.37 75.06-1.00L75.06-1.00Q75.06-1.13 75.10-1.53Q75.14-1.93 75.20-2.49Q75.25-3.05 75.31-3.69Q75.37-4.34 75.43-4.97Q75.49-5.61 75.53-6.15Q75.57-6.70 75.57-7.07L75.57-7.07Q75.57-7.56 75.53-8.01Q75.49-8.46 75.37-8.55L75.37-8.55Q75.20-8.50 74.75-7.82Q74.30-7.15 73.59-5.45L73.59-5.45Q73.50-5.23 73.30-5.12Q73.11-5 72.89-5L72.89-5Q72.56-5 72.36-5.22Q72.17-5.45 72.17-5.74L72.17-5.74Q72.17-5.88 72.23-6.04L72.23-6.04Q73.11-8.13 73.88-9.11Q74.65-10.10 75.41-10.10L75.41-10.10Q75.86-10.10 76.17-9.87Q76.48-9.65 76.67-9.28Q76.86-8.91 76.94-8.46Q77.03-8.01 77.03-7.54L77.03-7.54Q77.03-7.19 76.98-6.45Q76.93-5.70 76.86-4.85Q76.78-4.00 76.71-3.16Q76.64-2.32 76.58-1.76Z M92.38-2.15L92.38-2.15Q92.79-1.58 93.44-1.24Q94.08-0.90 95.02-0.90L95.02-0.90Q95.98-0.90 96.76-1.36Q97.54-1.82 98.18-2.56Q98.83-3.30 99.34-4.22Q99.84-5.14 100.25-6.05L100.25-6.05Q100.35-6.27 100.53-6.38Q100.70-6.48 100.92-6.48L100.92-6.48Q101.25-6.48 101.46-6.25Q101.66-6.02 101.66-5.74L101.66-5.74Q101.66-5.64 101.64-5.58Q101.62-5.51 101.58-5.43L101.58-5.43Q100.23-2.46 98.64-0.96Q97.05 0.55 95.04 0.59L95.04 0.59Q93.75 0.59 92.81 0.09Q91.88-0.41 91.27-1.20Q90.66-1.99 90.37-2.99Q90.08-3.98 90.08-4.98L90.08-4.98Q90.08-5.98 90.32-6.82Q90.57-7.66 91.03-8.28Q91.48-8.91 92.12-9.26Q92.75-9.61 93.52-9.61L93.52-9.61Q93.96-9.61 94.40-9.42Q94.84-9.24 95.20-8.90Q95.55-8.55 95.76-8.07Q95.98-7.58 95.98-6.95L95.98-6.95Q95.98-6.15 95.70-5.45Q95.43-4.75 94.95-4.14Q94.47-3.54 93.81-3.03Q93.14-2.52 92.38-2.15ZM91.80-3.42L91.80-3.42Q92.40-3.67 92.90-4.06Q93.40-4.45 93.75-4.92Q94.10-5.39 94.30-5.91Q94.49-6.43 94.49-6.95L94.49-6.95Q94.49-7.54 94.20-7.84Q93.91-8.14 93.52-8.14L93.52-8.14Q92.99-8.14 92.62-7.85Q92.25-7.56 92.01-7.09Q91.78-6.62 91.67-6.04Q91.56-5.47 91.56-4.90L91.56-4.90Q91.56-4.55 91.63-4.16Q91.70-3.77 91.80-3.42Z M102.60-2.15L102.60-2.15Q103.01-1.58 103.65-1.24Q104.30-0.90 105.23-0.90L105.23-0.90Q106.19-0.90 106.97-1.36Q107.75-1.82 108.40-2.56Q109.04-3.30 109.55-4.22Q110.06-5.14 110.47-6.05L110.47-6.05Q110.57-6.27 110.74-6.38Q110.92-6.48 111.13-6.48L111.13-6.48Q111.46-6.48 111.67-6.25Q111.88-6.02 111.88-5.74L111.88-5.74Q111.88-5.64 111.86-5.58Q111.84-5.51 111.80-5.43L111.80-5.43Q110.45-2.46 108.86-0.96Q107.27 0.55 105.25 0.59L105.25 0.59Q103.96 0.59 103.03 0.09Q102.09-0.41 101.48-1.20Q100.88-1.99 100.59-2.99Q100.29-3.98 100.29-4.98L100.29-4.98Q100.29-5.98 100.54-6.82Q100.78-7.66 101.24-8.28Q101.70-8.91 102.33-9.26Q102.97-9.61 103.73-9.61L103.73-9.61Q104.18-9.61 104.62-9.42Q105.06-9.24 105.41-8.90Q105.76-8.55 105.98-8.07Q106.19-7.58 106.19-6.95L106.19-6.95Q106.19-6.15 105.92-5.45Q105.64-4.75 105.17-4.14Q104.69-3.54 104.02-3.03Q103.36-2.52 102.60-2.15ZM102.01-3.42L102.01-3.42Q102.62-3.67 103.12-4.06Q103.61-4.45 103.96-4.92Q104.32-5.39 104.51-5.91Q104.71-6.43 104.71-6.95L104.71-6.95Q104.71-7.54 104.41-7.84Q104.12-8.14 103.73-8.14L103.73-8.14Q103.20-8.14 102.83-7.85Q102.46-7.56 102.23-7.09Q101.99-6.62 101.88-6.04Q101.78-5.47 101.78-4.90L101.78-4.90Q101.78-4.55 101.85-4.16Q101.91-3.77 102.01-3.42Z"/></g>
</svg>
</g></g><g filter="url(#tUk6sjh6M)"><g opacity="1" transform="rotate(0 86.9767 307.9853)">
<svg width="276.3901" height="120" x="86.9767" y="307.9853" version="1.1" preserveAspectRatio="none" viewBox="1.1719 -28.7305 110.7031 48.0664">
  <g transform="matrix(1 0 0 1 0 0)" class="companyName"><path id="id-D6z1nYkh7" d="M18.28-28.73L18.28-28.73Q20.68-28.73 23.18-28.29Q25.68-27.85 28.05-26.95Q30.41-26.05 32.50-24.70Q34.59-23.34 36.15-21.52Q37.71-19.71 38.62-17.42Q39.53-15.14 39.53-12.36L39.53-12.36Q39.53-9.59 38.55-7.23Q37.58-4.86 35.82-3.14Q34.06-1.43 31.62-0.45Q29.18 0.53 26.25 0.53L26.25 0.53Q24.86 0.53 23.38 0.32Q21.89 0.12 20.41-0.31Q18.93-0.74 17.49-1.38Q16.05-2.01 14.75-2.89L14.75-2.89Q13.20-1.37 11.18-0.52Q9.16 0.33 6.91 0.33L6.91 0.33Q5.70 0.33 4.65 0.06Q3.59-0.21 2.82-0.72Q2.05-1.23 1.61-1.95Q1.17-2.68 1.17-3.55L1.17-3.55Q1.17-4.32 1.55-4.98Q1.93-5.64 2.63-6.15Q3.32-6.66 4.29-6.95Q5.25-7.25 6.41-7.25L6.41-7.25Q9.80-7.25 14.45-4.75L14.45-4.75Q15.31-5.82 15.86-7.17L15.86-7.17Q16.46-8.67 16.81-10.26Q17.15-11.86 17.41-13.44Q17.68-15.02 17.96-16.52Q18.24-18.03 18.74-19.36Q19.24-20.68 20.05-21.79Q20.86-22.89 22.17-23.67L22.17-23.67Q22.36-23.77 22.52-23.77L22.52-23.77Q22.79-23.77 23.04-23.57Q23.28-23.38 23.28-23.03L23.28-23.03Q23.28-22.62 22.91-22.40L22.91-22.40Q21.88-21.80 21.22-20.89Q20.57-19.98 20.14-18.85Q19.71-17.71 19.45-16.41Q19.20-15.10 18.96-13.67L18.96-13.67Q18.77-12.50 18.54-11.22Q18.30-9.94 17.95-8.68Q17.60-7.42 17.06-6.22Q16.52-5.02 15.74-4.00L15.74-4.00Q15.78-3.98 15.79-3.97Q15.80-3.96 15.84-3.95L15.84-3.95Q18.32-2.46 21.00-1.70Q23.67-0.94 26.23-0.94L26.23-0.94Q29.00-0.94 31.20-1.86Q33.40-2.77 34.92-4.33Q36.45-5.88 37.25-7.95Q38.05-10.02 38.05-12.32L38.05-12.32Q38.05-14.67 37.27-16.69Q36.48-18.71 35.13-20.37Q33.77-22.03 31.90-23.32Q30.04-24.61 27.88-25.48Q25.72-26.35 23.35-26.81Q20.98-27.27 18.59-27.27L18.59-27.27Q15.39-27.27 12.74-26.73Q10.10-26.19 8.19-25.16Q6.29-24.12 5.23-22.62Q4.18-21.11 4.18-19.20L4.18-19.20Q4.18-18.11 4.50-17.27Q4.82-16.43 5.32-15.81Q5.82-15.20 6.41-14.77Q6.99-14.34 7.50-14.07Q8.01-13.81 8.37-13.69Q8.73-13.57 8.79-13.55L8.79-13.55Q9.04-13.50 9.19-13.29Q9.34-13.09 9.34-12.83L9.34-12.83Q9.34-12.50 9.10-12.32Q8.87-12.15 8.59-12.15L8.59-12.15Q8.20-12.15 7.62-12.33Q7.03-12.52 6.38-12.90Q5.72-13.28 5.07-13.86Q4.41-14.43 3.89-15.21Q3.36-16.00 3.04-16.99Q2.71-17.99 2.71-19.20L2.71-19.20Q2.71-21.41 3.84-23.17Q4.96-24.94 7.01-26.17Q9.06-27.40 11.92-28.07Q14.79-28.73 18.28-28.73ZM13.40-3.63L13.40-3.63Q11.37-4.71 9.63-5.25Q7.89-5.80 6.45-5.80L6.45-5.80Q5.63-5.80 4.93-5.62Q4.24-5.43 3.73-5.12Q3.22-4.80 2.93-4.39Q2.64-3.98 2.64-3.54L2.64-3.54Q2.64-3.11 2.90-2.68Q3.16-2.25 3.70-1.91Q4.24-1.58 5.04-1.37Q5.84-1.15 6.91-1.15L6.91-1.15Q8.75-1.15 10.42-1.81Q12.09-2.46 13.40-3.63Z M43.98-2.15L43.98-2.15Q44.39-1.58 45.04-1.24Q45.68-0.90 46.62-0.90L46.62-0.90Q47.58-0.90 48.36-1.36Q49.14-1.82 49.79-2.56Q50.43-3.30 50.94-4.22Q51.45-5.14 51.86-6.05L51.86-6.05Q51.95-6.27 52.13-6.38Q52.30-6.48 52.52-6.48L52.52-6.48Q52.85-6.48 53.06-6.25Q53.26-6.02 53.26-5.74L53.26-5.74Q53.26-5.64 53.24-5.58Q53.22-5.51 53.18-5.43L53.18-5.43Q51.84-2.46 50.24-0.96Q48.65 0.55 46.64 0.59L46.64 0.59Q45.35 0.59 44.41 0.09Q43.48-0.41 42.87-1.20Q42.27-1.99 41.97-2.99Q41.68-3.98 41.68-4.98L41.68-4.98Q41.68-5.98 41.92-6.82Q42.17-7.66 42.63-8.28Q43.09-8.91 43.72-9.26Q44.36-9.61 45.12-9.61L45.12-9.61Q45.57-9.61 46.01-9.42Q46.45-9.24 46.80-8.90Q47.15-8.55 47.36-8.07Q47.58-7.58 47.58-6.95L47.58-6.95Q47.58-6.15 47.30-5.45Q47.03-4.75 46.55-4.14Q46.07-3.54 45.41-3.03Q44.75-2.52 43.98-2.15ZM43.40-3.42L43.40-3.42Q44.00-3.67 44.50-4.06Q45-4.45 45.35-4.92Q45.70-5.39 45.90-5.91Q46.09-6.43 46.09-6.95L46.09-6.95Q46.09-7.54 45.80-7.84Q45.51-8.14 45.12-8.14L45.12-8.14Q44.59-8.14 44.22-7.85Q43.85-7.56 43.61-7.09Q43.38-6.62 43.27-6.04Q43.16-5.47 43.16-4.90L43.16-4.90Q43.16-4.55 43.23-4.16Q43.30-3.77 43.40-3.42Z M55.21-15.33L55.21-15.33Q55.21-14.59 54.70-14.07Q54.18-13.55 53.44-13.55L53.44-13.55Q52.70-13.55 52.18-14.07Q51.66-14.59 51.66-15.33L51.66-15.33Q51.66-15.70 51.80-16.03Q51.93-16.35 52.18-16.59Q52.42-16.84 52.74-16.97Q53.07-17.11 53.44-17.11L53.44-17.11Q53.81-17.11 54.13-16.97Q54.45-16.84 54.70-16.59Q54.94-16.35 55.08-16.03Q55.21-15.70 55.21-15.33ZM53.34 0.68L53.34 0.68Q54.06-0.10 54.82-0.97Q55.59-1.84 56.29-2.71Q56.99-3.57 57.58-4.42Q58.16-5.27 58.50-6.04L58.50-6.04Q58.67-6.46 59.16-6.46L59.16-6.46Q59.49-6.46 59.70-6.24Q59.90-6.02 59.90-5.74L59.90-5.74Q59.90-5.59 59.84-5.45L59.84-5.45Q59.39-4.43 58.61-3.34Q57.83-2.25 56.92-1.16Q56.02-0.08 55.07 0.95Q54.12 1.97 53.34 2.85L53.34 2.85Q53.36 4.41 53.39 5.92Q53.42 7.42 53.42 8.77L53.42 8.77Q53.42 14.14 52.36 16.74Q51.31 19.34 49.22 19.34L49.22 19.34Q48.50 19.34 47.89 19.02Q47.29 18.71 46.86 18.13Q46.43 17.54 46.18 16.68Q45.94 15.82 45.94 14.73L45.94 14.73Q45.94 13.52 46.26 12.08Q46.58 10.64 47.29 9.04Q48.01 7.44 49.14 5.73Q50.27 4.02 51.88 2.27L51.88 2.27Q51.88 0.59 51.89-1.08Q51.91-2.75 51.96-4.29Q52.01-5.82 52.10-7.16Q52.19-8.50 52.30-9.53L52.30-9.53Q52.34-9.82 52.55-10Q52.75-10.18 53.05-10.18L53.05-10.18Q53.34-10.18 53.55-9.96Q53.77-9.75 53.77-9.43L53.77-9.43Q53.77-9.32 53.70-8.67Q53.63-8.03 53.55-6.78Q53.48-5.53 53.41-3.68Q53.34-1.84 53.34 0.68ZM54.10-15.33L54.10-15.33Q54.10-15.61 53.91-15.81Q53.71-16.02 53.44-16.02L53.44-16.02Q53.16-16.02 52.96-15.81Q52.75-15.61 52.75-15.33L52.75-15.33Q52.75-15.06 52.96-14.86Q53.16-14.67 53.44-14.67L53.44-14.67Q53.71-14.67 53.91-14.86Q54.10-15.06 54.10-15.33ZM51.95 8.65L51.95 8.65Q51.95 7.66 51.93 6.66Q51.91 5.66 51.89 4.49L51.89 4.49Q50.68 5.96 49.83 7.38Q48.98 8.81 48.44 10.12Q47.89 11.43 47.65 12.60Q47.40 13.77 47.40 14.73L47.40 14.73Q47.40 15.27 47.48 15.83Q47.56 16.39 47.76 16.85Q47.97 17.30 48.32 17.59Q48.67 17.87 49.22 17.87L49.22 17.87Q49.43 17.87 49.73 17.77Q50.02 17.68 50.32 17.35Q50.63 17.03 50.92 16.43Q51.21 15.82 51.45 14.79Q51.68 13.77 51.82 12.27Q51.95 10.76 51.95 8.65Z M73.59-5.45L73.59-5.45Q73.52-5.29 73.27-4.79Q73.03-4.30 72.65-3.65Q72.27-3.01 71.76-2.30Q71.25-1.60 70.63-1.02Q70-0.43 69.28-0.05Q68.55 0.33 67.75 0.33L67.75 0.33Q66.62 0.33 65.85-0.39Q65.08-1.11 64.73-2.21L64.73-2.21Q64.06-1.09 63.14-0.44Q62.23 0.21 61.31 0.21L61.31 0.21Q60.59 0.21 60-0.05Q59.41-0.31 59.00-0.79Q58.59-1.27 58.37-1.91Q58.14-2.56 58.14-3.32L58.14-3.32Q58.14-4.84 58.66-6.01Q59.18-7.17 59.98-7.95Q60.78-8.73 61.75-9.12Q62.71-9.51 63.61-9.51L63.61-9.51Q64.22-9.51 64.73-9.35Q65.23-9.18 65.60-8.98Q65.96-8.79 66.15-8.62Q66.35-8.46 66.37-8.44L66.37-8.44Q66.58-8.18 66.58-7.91L66.58-7.91Q66.58-7.62 66.37-7.39Q66.15-7.17 65.86-7.17L65.86-7.17Q65.55-7.17 65.33-7.38L65.33-7.38Q65.29-7.42 65.16-7.53Q65.02-7.64 64.79-7.75Q64.55-7.87 64.23-7.96Q63.91-8.05 63.50-8.05L63.50-8.05Q62.89-8.05 62.21-7.77Q61.52-7.50 60.96-6.92Q60.39-6.35 60.01-5.48Q59.63-4.61 59.63-3.42L59.63-3.42Q59.63-3.05 59.71-2.67Q59.79-2.29 59.98-1.97Q60.18-1.66 60.51-1.46Q60.84-1.27 61.33-1.27L61.33-1.27Q61.68-1.27 62.14-1.50Q62.60-1.74 63.02-2.23Q63.44-2.71 63.78-3.46Q64.12-4.20 64.26-5.21L64.26-5.21Q64.30-5.49 64.51-5.67Q64.73-5.86 65.02-5.86L65.02-5.86Q65.29-5.86 65.50-5.64Q65.70-5.43 65.72-5.16L65.72-5.16Q65.74-4.79 65.80-4.11Q65.86-3.44 66.06-2.77Q66.27-2.11 66.68-1.62Q67.09-1.13 67.81-1.13L67.81-1.13Q68.28-1.13 68.74-1.39Q69.20-1.64 69.64-2.06Q70.08-2.48 70.48-3.02Q70.88-3.55 71.21-4.10Q71.54-4.65 71.80-5.16Q72.05-5.66 72.23-6.04L72.23-6.04Q72.32-6.25 72.51-6.37Q72.70-6.48 72.91-6.48L72.91-6.48Q73.24-6.48 73.45-6.24Q73.65-6.00 73.65-5.72L73.65-5.72Q73.65-5.59 73.59-5.45Z M76.58-1.76L76.58-1.76Q76.89-2.40 77.30-3.17Q77.71-3.95 78.18-4.74Q78.65-5.53 79.17-6.31Q79.69-7.09 80.25-7.79L80.25-7.79Q80.82-8.48 81.40-8.78Q81.97-9.08 82.48-9.08L82.48-9.08Q83.50-9.08 83.98-8.34Q84.47-7.60 84.47-6.50L84.47-6.50Q84.47-6.25 84.44-5.89Q84.41-5.53 84.38-5.12Q84.36-4.71 84.33-4.29Q84.30-3.87 84.30-3.50L84.30-3.50Q84.30-3.03 84.35-2.60Q84.39-2.17 84.53-1.85Q84.67-1.52 84.92-1.34Q85.18-1.15 85.59-1.15L85.59-1.15Q86.33-1.15 87.03-1.73Q87.73-2.30 88.33-3.10Q88.93-3.89 89.37-4.71Q89.80-5.53 90.02-6.04L90.02-6.04Q90.12-6.25 90.30-6.37Q90.49-6.48 90.70-6.48L90.70-6.48Q91.04-6.48 91.24-6.24Q91.45-6.00 91.45-5.72L91.45-5.72Q91.45-5.59 91.39-5.45L91.39-5.45Q91.31-5.29 91.07-4.80Q90.84-4.32 90.46-3.68Q90.08-3.05 89.57-2.33Q89.06-1.62 88.45-1.04Q87.83-0.45 87.12-0.06Q86.41 0.33 85.63 0.33L85.63 0.33Q84.75 0.33 84.20-0.01Q83.65-0.35 83.34-0.91Q83.03-1.46 82.92-2.14Q82.81-2.81 82.81-3.50L82.81-3.50Q82.81-3.79 82.84-4.16Q82.87-4.53 82.92-4.94Q82.97-5.35 83.00-5.76Q83.03-6.17 83.03-6.54L83.03-6.54Q83.03-7.17 82.83-7.39Q82.64-7.62 82.48-7.62L82.48-7.62Q82.17-7.62 81.77-7.26Q81.37-6.89 80.93-6.31Q80.49-5.72 80.03-4.99Q79.57-4.26 79.17-3.54Q78.77-2.81 78.43-2.16Q78.09-1.50 77.89-1.07L77.89-1.07Q77.50-0.25 77.11 0.03Q76.72 0.31 76.31 0.31L76.31 0.31Q75.74 0.31 75.40-0.03Q75.06-0.37 75.06-1.00L75.06-1.00Q75.06-1.13 75.10-1.53Q75.14-1.93 75.20-2.49Q75.25-3.05 75.31-3.69Q75.37-4.34 75.43-4.97Q75.49-5.61 75.53-6.15Q75.57-6.70 75.57-7.07L75.57-7.07Q75.57-7.56 75.53-8.01Q75.49-8.46 75.37-8.55L75.37-8.55Q75.20-8.50 74.75-7.82Q74.30-7.15 73.59-5.45L73.59-5.45Q73.50-5.23 73.30-5.12Q73.11-5 72.89-5L72.89-5Q72.56-5 72.36-5.22Q72.17-5.45 72.17-5.74L72.17-5.74Q72.17-5.88 72.23-6.04L72.23-6.04Q73.11-8.13 73.88-9.11Q74.65-10.10 75.41-10.10L75.41-10.10Q75.86-10.10 76.17-9.87Q76.48-9.65 76.67-9.28Q76.86-8.91 76.94-8.46Q77.03-8.01 77.03-7.54L77.03-7.54Q77.03-7.19 76.98-6.45Q76.93-5.70 76.86-4.85Q76.78-4.00 76.71-3.16Q76.64-2.32 76.58-1.76Z M92.38-2.15L92.38-2.15Q92.79-1.58 93.44-1.24Q94.08-0.90 95.02-0.90L95.02-0.90Q95.98-0.90 96.76-1.36Q97.54-1.82 98.18-2.56Q98.83-3.30 99.34-4.22Q99.84-5.14 100.25-6.05L100.25-6.05Q100.35-6.27 100.53-6.38Q100.70-6.48 100.92-6.48L100.92-6.48Q101.25-6.48 101.46-6.25Q101.66-6.02 101.66-5.74L101.66-5.74Q101.66-5.64 101.64-5.58Q101.62-5.51 101.58-5.43L101.58-5.43Q100.23-2.46 98.64-0.96Q97.05 0.55 95.04 0.59L95.04 0.59Q93.75 0.59 92.81 0.09Q91.88-0.41 91.27-1.20Q90.66-1.99 90.37-2.99Q90.08-3.98 90.08-4.98L90.08-4.98Q90.08-5.98 90.32-6.82Q90.57-7.66 91.03-8.28Q91.48-8.91 92.12-9.26Q92.75-9.61 93.52-9.61L93.52-9.61Q93.96-9.61 94.40-9.42Q94.84-9.24 95.20-8.90Q95.55-8.55 95.76-8.07Q95.98-7.58 95.98-6.95L95.98-6.95Q95.98-6.15 95.70-5.45Q95.43-4.75 94.95-4.14Q94.47-3.54 93.81-3.03Q93.14-2.52 92.38-2.15ZM91.80-3.42L91.80-3.42Q92.40-3.67 92.90-4.06Q93.40-4.45 93.75-4.92Q94.10-5.39 94.30-5.91Q94.49-6.43 94.49-6.95L94.49-6.95Q94.49-7.54 94.20-7.84Q93.91-8.14 93.52-8.14L93.52-8.14Q92.99-8.14 92.62-7.85Q92.25-7.56 92.01-7.09Q91.78-6.62 91.67-6.04Q91.56-5.47 91.56-4.90L91.56-4.90Q91.56-4.55 91.63-4.16Q91.70-3.77 91.80-3.42Z M102.60-2.15L102.60-2.15Q103.01-1.58 103.65-1.24Q104.30-0.90 105.23-0.90L105.23-0.90Q106.19-0.90 106.97-1.36Q107.75-1.82 108.40-2.56Q109.04-3.30 109.55-4.22Q110.06-5.14 110.47-6.05L110.47-6.05Q110.57-6.27 110.74-6.38Q110.92-6.48 111.13-6.48L111.13-6.48Q111.46-6.48 111.67-6.25Q111.88-6.02 111.88-5.74L111.88-5.74Q111.88-5.64 111.86-5.58Q111.84-5.51 111.80-5.43L111.80-5.43Q110.45-2.46 108.86-0.96Q107.27 0.55 105.25 0.59L105.25 0.59Q103.96 0.59 103.03 0.09Q102.09-0.41 101.48-1.20Q100.88-1.99 100.59-2.99Q100.29-3.98 100.29-4.98L100.29-4.98Q100.29-5.98 100.54-6.82Q100.78-7.66 101.24-8.28Q101.70-8.91 102.33-9.26Q102.97-9.61 103.73-9.61L103.73-9.61Q104.18-9.61 104.62-9.42Q105.06-9.24 105.41-8.90Q105.76-8.55 105.98-8.07Q106.19-7.58 106.19-6.95L106.19-6.95Q106.19-6.15 105.92-5.45Q105.64-4.75 105.17-4.14Q104.69-3.54 104.02-3.03Q103.36-2.52 102.60-2.15ZM102.01-3.42L102.01-3.42Q102.62-3.67 103.12-4.06Q103.61-4.45 103.96-4.92Q104.32-5.39 104.51-5.91Q104.71-6.43 104.71-6.95L104.71-6.95Q104.71-7.54 104.41-7.84Q104.12-8.14 103.73-8.14L103.73-8.14Q103.20-8.14 102.83-7.85Q102.46-7.56 102.23-7.09Q101.99-6.62 101.88-6.04Q101.78-5.47 101.78-4.90L101.78-4.90Q101.78-4.55 101.85-4.16Q101.91-3.77 102.01-3.42Z"/></g>
</svg>
</g></g><g filter="url(#a2O-D20rgJ)"><g opacity="1" transform="rotate(0 159.5527 167.9853)">
<svg width="131.2382" height="120" x="159.5527" y="167.9853" version="1.1" preserveAspectRatio="none" viewBox="5 8.852999687194824 90 82.29301452636719">
  <g transform="matrix(1 0 0 1 0 0)" class="icon3"><path d="M68.835,12.853C81.057,12.853,91,22.796,91,35.019c0,26.395-32.808,46.858-41.003,51.557C41.792,81.881,9,61.46,9,35.019  c0-12.222,9.944-22.166,22.166-22.166c6.047,0,11.699,2.396,15.916,6.747l2.828,2.918l0.074-0.074l0.091,0.092l2.844-2.934  C57.135,15.25,62.787,12.853,68.835,12.853 M68.835,8.853c-7.375,0-14.033,3.056-18.79,7.965l-0.046-0.046l-0.045,0.045  c-4.757-4.908-11.414-7.963-18.788-7.963C16.715,8.853,5,20.567,5,35.019C5,67.87,49.999,91.146,49.999,91.146S95,67.87,95,35.019  C95,20.567,83.285,8.853,68.835,8.853L68.835,8.853z"></path><path fill-rule="evenodd" clip-rule="evenodd" stroke-width="4" stroke-miterlimit="10" d="  M8.204,51.309"></path></g>
</svg>
</g></g><g filter="url(#i0NrGVRvc)"><g opacity="1" transform="rotate(0 159.5527 167.9853)">
<svg width="131.2382" height="120" x="159.5527" y="167.9853" version="1.1" preserveAspectRatio="none" viewBox="5 8.852999687194824 90 82.29301452636719">
  <g transform="matrix(1 0 0 1 0 0)" class="companyName"><path d="M68.835,12.853C81.057,12.853,91,22.796,91,35.019c0,26.395-32.808,46.858-41.003,51.557C41.792,81.881,9,61.46,9,35.019  c0-12.222,9.944-22.166,22.166-22.166c6.047,0,11.699,2.396,15.916,6.747l2.828,2.918l0.074-0.074l0.091,0.092l2.844-2.934  C57.135,15.25,62.787,12.853,68.835,12.853 M68.835,8.853c-7.375,0-14.033,3.056-18.79,7.965l-0.046-0.046l-0.045,0.045  c-4.757-4.908-11.414-7.963-18.788-7.963C16.715,8.853,5,20.567,5,35.019C5,67.87,49.999,91.146,49.999,91.146S95,67.87,95,35.019  C95,20.567,83.285,8.853,68.835,8.853L68.835,8.853z"></path><path fill-rule="evenodd" clip-rule="evenodd" stroke-width="4" stroke-miterlimit="10" d="  M8.204,51.309"></path></g>
</svg>
</g></g></svg></svg>